<?xml version="1.0" encoding="UTF-8" standalone="no"?>
<!DOCTYPE svg PUBLIC "-//W3C//DTD SVG 1.1//EN"
 "http://www.w3.org/Graphics/SVG/1.1/DTD/svg11.dtd">
<!-- Generated by graphviz version 2.40.1 (20161225.0304)
 -->
<!-- Title: snakemake_dag Pages: 1 -->
<svg width="1469pt" height="692pt"
 viewBox="0.00 0.00 1468.59 692.00" xmlns="http://www.w3.org/2000/svg" xmlns:xlink="http://www.w3.org/1999/xlink">
<g id="graph0" class="graph" transform="scale(1 1) rotate(0) translate(4 688)">
<title>snakemake_dag</title>
<polygon fill="#ffffff" stroke="transparent" points="-4,4 -4,-688 1464.5933,-688 1464.5933,4 -4,4"/>
<!-- 0 -->
<g id="node1" class="node">
<title>0</title>
<path fill="none" stroke="#b6d856" stroke-width="2" d="M639.7979,-36C639.7979,-36 609.7979,-36 609.7979,-36 603.7979,-36 597.7979,-30 597.7979,-24 597.7979,-24 597.7979,-12 597.7979,-12 597.7979,-6 603.7979,0 609.7979,0 609.7979,0 639.7979,0 639.7979,0 645.7979,0 651.7979,-6 651.7979,-12 651.7979,-12 651.7979,-24 651.7979,-24 651.7979,-30 645.7979,-36 639.7979,-36"/>
<text text-anchor="middle" x="624.7979" y="-15" font-family="sans" font-size="10.00" fill="#000000">run_all</text>
</g>
<!-- 1 -->
<g id="node2" class="node">
<title>1</title>
<path fill="none" stroke="#d85656" stroke-width="2" d="M860.3848,-108C860.3848,-108 803.2109,-108 803.2109,-108 797.2109,-108 791.2109,-102 791.2109,-96 791.2109,-96 791.2109,-84 791.2109,-84 791.2109,-78 797.2109,-72 803.2109,-72 803.2109,-72 860.3848,-72 860.3848,-72 866.3848,-72 872.3848,-78 872.3848,-84 872.3848,-84 872.3848,-96 872.3848,-96 872.3848,-102 866.3848,-108 860.3848,-108"/>
<text text-anchor="middle" x="831.7979" y="-87" font-family="sans" font-size="10.00" fill="#000000">mark_dups_txt</text>
</g>
<!-- 1&#45;&gt;0 -->
<g id="edge1" class="edge">
<title>1&#45;&gt;0</title>
<path fill="none" stroke="#c0c0c0" stroke-width="2" d="M790.9013,-75.7751C753.3144,-62.7014 698.083,-43.4905 661.7858,-30.8654"/>
<polygon fill="#c0c0c0" stroke="#c0c0c0" stroke-width="2" points="662.6755,-27.4692 652.0807,-27.4897 660.3758,-34.0807 662.6755,-27.4692"/>
</g>
<!-- 2 -->
<g id="node3" class="node">
<title>2</title>
<path fill="none" stroke="#56d8c9" stroke-width="2" d="M1072.7042,-108C1072.7042,-108 1026.8915,-108 1026.8915,-108 1020.8915,-108 1014.8915,-102 1014.8915,-96 1014.8915,-96 1014.8915,-84 1014.8915,-84 1014.8915,-78 1020.8915,-72 1026.8915,-72 1026.8915,-72 1072.7042,-72 1072.7042,-72 1078.7042,-72 1084.7042,-78 1084.7042,-84 1084.7042,-84 1084.7042,-96 1084.7042,-96 1084.7042,-102 1078.7042,-108 1072.7042,-108"/>
<text text-anchor="middle" x="1049.7979" y="-87" font-family="sans" font-size="10.00" fill="#000000">plot_metrics</text>
</g>
<!-- 2&#45;&gt;0 -->
<g id="edge2" class="edge">
<title>2&#45;&gt;0</title>
<path fill="none" stroke="#c0c0c0" stroke-width="2" d="M1014.7462,-76.1243C1010.1018,-74.5815 1005.3671,-73.1538 1000.7979,-72 879.1073,-41.2715 730.5425,-26.3868 662.3188,-20.7717"/>
<polygon fill="#c0c0c0" stroke="#c0c0c0" stroke-width="2" points="662.3237,-17.2609 652.0756,-19.9491 661.7633,-24.2384 662.3237,-17.2609"/>
</g>
<!-- 3 -->
<g id="node4" class="node">
<title>3</title>
<path fill="none" stroke="#d88d56" stroke-width="2" d="M947.0542,-108C947.0542,-108 902.5415,-108 902.5415,-108 896.5415,-108 890.5415,-102 890.5415,-96 890.5415,-96 890.5415,-84 890.5415,-84 890.5415,-78 896.5415,-72 902.5415,-72 902.5415,-72 947.0542,-72 947.0542,-72 953.0542,-72 959.0542,-78 959.0542,-84 959.0542,-84 959.0542,-96 959.0542,-96 959.0542,-102 953.0542,-108 947.0542,-108"/>
<text text-anchor="middle" x="924.7979" y="-87" font-family="sans" font-size="10.00" fill="#000000">run_flagstat</text>
</g>
<!-- 3&#45;&gt;0 -->
<g id="edge3" class="edge">
<title>3&#45;&gt;0</title>
<path fill="none" stroke="#c0c0c0" stroke-width="2" d="M890.273,-74.8863C887.4294,-73.8443 884.5797,-72.8659 881.7979,-72 805.1891,-48.1532 712.4584,-31.5742 661.9737,-23.5398"/>
<polygon fill="#c0c0c0" stroke="#c0c0c0" stroke-width="2" points="662.2843,-20.0458 651.863,-21.9555 661.2006,-26.9614 662.2843,-20.0458"/>
</g>
<!-- 4 -->
<g id="node5" class="node">
<title>4</title>
<path fill="none" stroke="#567bd8" stroke-width="2" d="M810.5072,-180C810.5072,-180 727.0885,-180 727.0885,-180 721.0885,-180 715.0885,-174 715.0885,-168 715.0885,-168 715.0885,-156 715.0885,-156 715.0885,-150 721.0885,-144 727.0885,-144 727.0885,-144 810.5072,-144 810.5072,-144 816.5072,-144 822.5072,-150 822.5072,-156 822.5072,-156 822.5072,-168 822.5072,-168 822.5072,-174 816.5072,-180 810.5072,-180"/>
<text text-anchor="middle" x="768.7979" y="-159" font-family="sans" font-size="10.00" fill="#000000">picard_align_metrics</text>
</g>
<!-- 4&#45;&gt;0 -->
<g id="edge4" class="edge">
<title>4&#45;&gt;0</title>
<path fill="none" stroke="#c0c0c0" stroke-width="2" d="M768.162,-143.6744C766.5524,-123.8404 761.1961,-92.3288 743.7979,-72 722.738,-47.3927 688.1592,-33.4372 661.6888,-25.9059"/>
<polygon fill="#c0c0c0" stroke="#c0c0c0" stroke-width="2" points="662.5495,-22.5132 651.9859,-23.3251 660.7502,-29.278 662.5495,-22.5132"/>
</g>
<!-- 17 -->
<g id="node18" class="node">
<title>17</title>
<path fill="none" stroke="#56d863" stroke-width="2" d="M584.6349,-108C584.6349,-108 474.9608,-108 474.9608,-108 468.9608,-108 462.9608,-102 462.9608,-96 462.9608,-96 462.9608,-84 462.9608,-84 462.9608,-78 468.9608,-72 474.9608,-72 474.9608,-72 584.6349,-72 584.6349,-72 590.6349,-72 596.6349,-78 596.6349,-84 596.6349,-84 596.6349,-96 596.6349,-96 596.6349,-102 590.6349,-108 584.6349,-108"/>
<text text-anchor="middle" x="529.7979" y="-87" font-family="sans" font-size="10.00" fill="#000000">generate_summary_report</text>
</g>
<!-- 4&#45;&gt;17 -->
<g id="edge39" class="edge">
<title>4&#45;&gt;17</title>
<path fill="none" stroke="#c0c0c0" stroke-width="2" d="M714.8636,-145.752C680.7401,-135.4722 636.286,-122.0801 599.4995,-110.998"/>
<polygon fill="#c0c0c0" stroke="#c0c0c0" stroke-width="2" points="600.4186,-107.6196 589.8341,-108.0862 598.3994,-114.322 600.4186,-107.6196"/>
</g>
<!-- 5 -->
<g id="node6" class="node">
<title>5</title>
<path fill="none" stroke="#d87556" stroke-width="2" d="M1196.8565,-108C1196.8565,-108 1124.7392,-108 1124.7392,-108 1118.7392,-108 1112.7392,-102 1112.7392,-96 1112.7392,-96 1112.7392,-84 1112.7392,-84 1112.7392,-78 1118.7392,-72 1124.7392,-72 1124.7392,-72 1196.8565,-72 1196.8565,-72 1202.8565,-72 1208.8565,-78 1208.8565,-84 1208.8565,-84 1208.8565,-96 1208.8565,-96 1208.8565,-102 1202.8565,-108 1196.8565,-108"/>
<text text-anchor="middle" x="1160.7979" y="-87" font-family="sans" font-size="10.00" fill="#000000">plot_read_overlap</text>
</g>
<!-- 5&#45;&gt;0 -->
<g id="edge5" class="edge">
<title>5&#45;&gt;0</title>
<path fill="none" stroke="#c0c0c0" stroke-width="2" d="M1112.6879,-76.1626C1106.3672,-74.6136 1099.9499,-73.1739 1093.7979,-72 934.6904,-41.6402 741.7363,-25.9732 662.0142,-20.407"/>
<polygon fill="#c0c0c0" stroke="#c0c0c0" stroke-width="2" points="662.1904,-16.9109 651.9742,-19.7179 661.711,-23.8945 662.1904,-16.9109"/>
</g>
<!-- 6 -->
<g id="node7" class="node">
<title>6</title>
<path fill="none" stroke="#56d8a2" stroke-width="2" d="M997.5122,-396C997.5122,-396 944.0835,-396 944.0835,-396 938.0835,-396 932.0835,-390 932.0835,-384 932.0835,-384 932.0835,-372 932.0835,-372 932.0835,-366 938.0835,-360 944.0835,-360 944.0835,-360 997.5122,-360 997.5122,-360 1003.5122,-360 1009.5122,-366 1009.5122,-372 1009.5122,-372 1009.5122,-384 1009.5122,-384 1009.5122,-390 1003.5122,-396 997.5122,-396"/>
<text text-anchor="middle" x="970.7979" y="-375" font-family="sans" font-size="10.00" fill="#000000">duplicate_plot</text>
</g>
<!-- 6&#45;&gt;0 -->
<g id="edge6" class="edge">
<title>6&#45;&gt;0</title>
<path fill="none" stroke="#c0c0c0" stroke-width="2" d="M973.5226,-359.8828C981.977,-300.8136 1005.0349,-115.1282 967.7979,-72 947.9434,-49.0044 746.6621,-28.7397 662.0015,-21.1646"/>
<polygon fill="#c0c0c0" stroke="#c0c0c0" stroke-width="2" points="662.3079,-17.6781 652.0385,-20.2837 661.6913,-24.6509 662.3079,-17.6781"/>
</g>
<!-- 7 -->
<g id="node8" class="node">
<title>7</title>
<path fill="none" stroke="#569ad8" stroke-width="2" d="M1330.4503,-108C1330.4503,-108 1267.1454,-108 1267.1454,-108 1261.1454,-108 1255.1454,-102 1255.1454,-96 1255.1454,-96 1255.1454,-84 1255.1454,-84 1255.1454,-78 1261.1454,-72 1267.1454,-72 1267.1454,-72 1330.4503,-72 1330.4503,-72 1336.4503,-72 1342.4503,-78 1342.4503,-84 1342.4503,-84 1342.4503,-96 1342.4503,-96 1342.4503,-102 1336.4503,-108 1330.4503,-108"/>
<text text-anchor="middle" x="1298.7979" y="-87" font-family="sans" font-size="10.00" fill="#000000">plot_mate_pairs</text>
</g>
<!-- 7&#45;&gt;0 -->
<g id="edge7" class="edge">
<title>7&#45;&gt;0</title>
<path fill="none" stroke="#c0c0c0" stroke-width="2" d="M1254.8516,-79.1616C1242.8904,-76.5056 1229.8963,-73.8872 1217.7979,-72 1009.0463,-39.4374 755.6607,-24.4502 661.9519,-19.7297"/>
<polygon fill="#c0c0c0" stroke="#c0c0c0" stroke-width="2" points="662.0015,-16.228 651.8406,-19.2293 661.6554,-23.2195 662.0015,-16.228"/>
</g>
<!-- 8 -->
<g id="node9" class="node">
<title>8</title>
<path fill="none" stroke="#d89c56" stroke-width="2" d="M332.5219,-180C332.5219,-180 269.0738,-180 269.0738,-180 263.0738,-180 257.0738,-174 257.0738,-168 257.0738,-168 257.0738,-156 257.0738,-156 257.0738,-150 263.0738,-144 269.0738,-144 269.0738,-144 332.5219,-144 332.5219,-144 338.5219,-144 344.5219,-150 344.5219,-156 344.5219,-156 344.5219,-168 344.5219,-168 344.5219,-174 338.5219,-180 332.5219,-180"/>
<text text-anchor="middle" x="300.7979" y="-159" font-family="sans" font-size="10.00" fill="#000000">coverage_depth</text>
</g>
<!-- 8&#45;&gt;0 -->
<g id="edge8" class="edge">
<title>8&#45;&gt;0</title>
<path fill="none" stroke="#c0c0c0" stroke-width="2" d="M309.9352,-143.6653C321.276,-122.8968 342.6155,-89.6538 370.7979,-72 406.5531,-49.6024 525.8039,-31.0898 587.3428,-22.7542"/>
<polygon fill="#c0c0c0" stroke="#c0c0c0" stroke-width="2" points="587.9667,-26.2021 597.4163,-21.411 587.0414,-19.2635 587.9667,-26.2021"/>
</g>
<!-- 8&#45;&gt;17 -->
<g id="edge38" class="edge">
<title>8&#45;&gt;17</title>
<path fill="none" stroke="#c0c0c0" stroke-width="2" d="M344.7241,-146.9696C347.7915,-145.9545 350.8389,-144.9562 353.7979,-144 388.5257,-132.778 427.2894,-120.8234 459.5794,-111.0224"/>
<polygon fill="#c0c0c0" stroke="#c0c0c0" stroke-width="2" points="460.8252,-114.3022 469.3809,-108.0531 458.7957,-107.6028 460.8252,-114.3022"/>
</g>
<!-- 9 -->
<g id="node10" class="node">
<title>9</title>
<path fill="none" stroke="#9fd856" stroke-width="2" d="M426.7818,-180C426.7818,-180 374.8139,-180 374.8139,-180 368.8139,-180 362.8139,-174 362.8139,-168 362.8139,-168 362.8139,-156 362.8139,-156 362.8139,-150 368.8139,-144 374.8139,-144 374.8139,-144 426.7818,-144 426.7818,-144 432.7818,-144 438.7818,-150 438.7818,-156 438.7818,-156 438.7818,-168 438.7818,-168 438.7818,-174 432.7818,-180 426.7818,-180"/>
<text text-anchor="middle" x="400.7979" y="-159" font-family="sans" font-size="10.00" fill="#000000">calc_frag_len</text>
</g>
<!-- 9&#45;&gt;0 -->
<g id="edge9" class="edge">
<title>9&#45;&gt;0</title>
<path fill="none" stroke="#c0c0c0" stroke-width="2" d="M389.3586,-143.7453C378.5858,-123.9734 366.3553,-92.5159 382.7979,-72 408.0558,-40.4848 526.3054,-26.1575 587.6531,-20.7532"/>
<polygon fill="#c0c0c0" stroke="#c0c0c0" stroke-width="2" points="588.0306,-24.2339 597.6999,-19.9033 587.4404,-17.2588 588.0306,-24.2339"/>
</g>
<!-- 9&#45;&gt;17 -->
<g id="edge42" class="edge">
<title>9&#45;&gt;17</title>
<path fill="none" stroke="#c0c0c0" stroke-width="2" d="M433.35,-143.8314C450.0027,-134.5368 470.4564,-123.1208 488.2364,-113.1971"/>
<polygon fill="#c0c0c0" stroke="#c0c0c0" stroke-width="2" points="490.2299,-116.0927 497.2561,-108.1628 486.8183,-109.9803 490.2299,-116.0927"/>
</g>
<!-- 10 -->
<g id="node11" class="node">
<title>10</title>
<path fill="none" stroke="#56d0d8" stroke-width="2" d="M284.7019,-396C284.7019,-396 198.8938,-396 198.8938,-396 192.8938,-396 186.8938,-390 186.8938,-384 186.8938,-384 186.8938,-372 186.8938,-372 186.8938,-366 192.8938,-360 198.8938,-360 198.8938,-360 284.7019,-360 284.7019,-360 290.7019,-360 296.7019,-366 296.7019,-372 296.7019,-372 296.7019,-384 296.7019,-384 296.7019,-390 290.7019,-396 284.7019,-396"/>
<text text-anchor="middle" x="241.7979" y="-375" font-family="sans" font-size="10.00" fill="#000000">run_dnamodel_apply</text>
</g>
<!-- 10&#45;&gt;0 -->
<g id="edge10" class="edge">
<title>10&#45;&gt;0</title>
<path fill="none" stroke="#c0c0c0" stroke-width="2" d="M220.46,-359.8984C193.2822,-334.6958 149.7979,-286.2134 149.7979,-234 149.7979,-234 149.7979,-234 149.7979,-162 149.7979,-135.5161 103.2887,-139.4924 270.7979,-72 327.9851,-48.9582 509.0596,-29.2056 587.7207,-21.4771"/>
<polygon fill="#c0c0c0" stroke="#c0c0c0" stroke-width="2" points="588.0615,-24.9605 597.676,-20.5096 587.3843,-17.9934 588.0615,-24.9605"/>
</g>
<!-- 24 -->
<g id="node25" class="node">
<title>24</title>
<path fill="none" stroke="#56d8a9" stroke-width="2" d="M264.1057,-324C264.1057,-324 219.49,-324 219.49,-324 213.49,-324 207.49,-318 207.49,-312 207.49,-312 207.49,-300 207.49,-300 207.49,-294 213.49,-288 219.49,-288 219.49,-288 264.1057,-288 264.1057,-288 270.1057,-288 276.1057,-294 276.1057,-300 276.1057,-300 276.1057,-312 276.1057,-312 276.1057,-318 270.1057,-324 264.1057,-324"/>
<text text-anchor="middle" x="241.7979" y="-303" font-family="sans" font-size="10.00" fill="#000000">select_snps</text>
</g>
<!-- 10&#45;&gt;24 -->
<g id="edge52" class="edge">
<title>10&#45;&gt;24</title>
<path fill="none" stroke="#c0c0c0" stroke-width="2" d="M241.7979,-359.8314C241.7979,-352.131 241.7979,-342.9743 241.7979,-334.4166"/>
<polygon fill="#c0c0c0" stroke="#c0c0c0" stroke-width="2" points="245.298,-334.4132 241.7979,-324.4133 238.298,-334.4133 245.298,-334.4132"/>
</g>
<!-- 26 -->
<g id="node27" class="node">
<title>26</title>
<path fill="none" stroke="#d88556" stroke-width="2" d="M109.6106,-324C109.6106,-324 59.9851,-324 59.9851,-324 53.9851,-324 47.9851,-318 47.9851,-312 47.9851,-312 47.9851,-300 47.9851,-300 47.9851,-294 53.9851,-288 59.9851,-288 59.9851,-288 109.6106,-288 109.6106,-288 115.6106,-288 121.6106,-294 121.6106,-300 121.6106,-300 121.6106,-312 121.6106,-312 121.6106,-318 115.6106,-324 109.6106,-324"/>
<text text-anchor="middle" x="84.7979" y="-303" font-family="sans" font-size="10.00" fill="#000000">select_indels</text>
</g>
<!-- 10&#45;&gt;26 -->
<g id="edge54" class="edge">
<title>10&#45;&gt;26</title>
<path fill="none" stroke="#c0c0c0" stroke-width="2" d="M202.1801,-359.8314C180.5603,-349.9165 153.6762,-337.5875 131.0936,-327.2312"/>
<polygon fill="#c0c0c0" stroke="#c0c0c0" stroke-width="2" points="132.2553,-323.9135 121.7066,-322.9263 129.3373,-330.2763 132.2553,-323.9135"/>
</g>
<!-- 29 -->
<g id="node30" class="node">
<title>29</title>
<path fill="none" stroke="#56d85b" stroke-width="2" d="M537.1203,-324C537.1203,-324 472.4754,-324 472.4754,-324 466.4754,-324 460.4754,-318 460.4754,-312 460.4754,-312 460.4754,-300 460.4754,-300 460.4754,-294 466.4754,-288 472.4754,-288 472.4754,-288 537.1203,-288 537.1203,-288 543.1203,-288 549.1203,-294 549.1203,-300 549.1203,-300 549.1203,-312 549.1203,-312 549.1203,-318 543.1203,-324 537.1203,-324"/>
<text text-anchor="middle" x="504.7979" y="-303" font-family="sans" font-size="10.00" fill="#000000">keep_pass_vars</text>
</g>
<!-- 10&#45;&gt;29 -->
<g id="edge57" class="edge">
<title>10&#45;&gt;29</title>
<path fill="none" stroke="#c0c0c0" stroke-width="2" d="M296.6111,-362.9941C341.6774,-350.6565 405.2147,-333.2623 450.2173,-320.9422"/>
<polygon fill="#c0c0c0" stroke="#c0c0c0" stroke-width="2" points="451.373,-324.2547 460.0939,-318.2383 449.5246,-317.5031 451.373,-324.2547"/>
</g>
<!-- 11 -->
<g id="node12" class="node">
<title>11</title>
<path fill="none" stroke="#5663d8" stroke-width="2" d="M227.3272,-180C227.3272,-180 190.2685,-180 190.2685,-180 184.2685,-180 178.2685,-174 178.2685,-168 178.2685,-168 178.2685,-156 178.2685,-156 178.2685,-150 184.2685,-144 190.2685,-144 190.2685,-144 227.3272,-144 227.3272,-144 233.3272,-144 239.3272,-150 239.3272,-156 239.3272,-156 239.3272,-168 239.3272,-168 239.3272,-174 233.3272,-180 227.3272,-180"/>
<text text-anchor="middle" x="208.7979" y="-159" font-family="sans" font-size="10.00" fill="#000000">eval_snps</text>
</g>
<!-- 11&#45;&gt;0 -->
<g id="edge11" class="edge">
<title>11&#45;&gt;0</title>
<path fill="none" stroke="#c0c0c0" stroke-width="2" d="M227.937,-143.6447C250.7608,-122.857 290.9755,-89.5959 331.7979,-72 418.5485,-34.6073 530.6449,-23.0837 587.7713,-19.5499"/>
<polygon fill="#c0c0c0" stroke="#c0c0c0" stroke-width="2" points="587.9956,-23.0429 597.7798,-18.9786 587.5966,-16.0542 587.9956,-23.0429"/>
</g>
<!-- 12 -->
<g id="node13" class="node">
<title>12</title>
<path fill="none" stroke="#56d8d8" stroke-width="2" d="M109.832,-180C109.832,-180 67.7637,-180 67.7637,-180 61.7637,-180 55.7637,-174 55.7637,-168 55.7637,-168 55.7637,-156 55.7637,-156 55.7637,-150 61.7637,-144 67.7637,-144 67.7637,-144 109.832,-144 109.832,-144 115.832,-144 121.832,-150 121.832,-156 121.832,-156 121.832,-168 121.832,-168 121.832,-174 115.832,-180 109.832,-180"/>
<text text-anchor="middle" x="88.7979" y="-159" font-family="sans" font-size="10.00" fill="#000000">eval_indels</text>
</g>
<!-- 12&#45;&gt;0 -->
<g id="edge12" class="edge">
<title>12&#45;&gt;0</title>
<path fill="none" stroke="#c0c0c0" stroke-width="2" d="M92.8727,-143.7077C98.6008,-122.6514 111.2069,-88.8148 135.7979,-72 172.8996,-46.6306 479.583,-26.4728 587.449,-20.1076"/>
<polygon fill="#c0c0c0" stroke="#c0c0c0" stroke-width="2" points="587.7672,-23.5951 597.5461,-19.518 587.359,-16.607 587.7672,-23.5951"/>
</g>
<!-- 13 -->
<g id="node14" class="node">
<title>13</title>
<path fill="none" stroke="#d8bc56" stroke-width="2" d="M722.3897,-108C722.3897,-108 665.206,-108 665.206,-108 659.206,-108 653.206,-102 653.206,-96 653.206,-96 653.206,-84 653.206,-84 653.206,-78 659.206,-72 665.206,-72 665.206,-72 722.3897,-72 722.3897,-72 728.3897,-72 734.3897,-78 734.3897,-84 734.3897,-84 734.3897,-96 734.3897,-96 734.3897,-102 728.3897,-108 722.3897,-108"/>
<text text-anchor="middle" x="693.7979" y="-87" font-family="sans" font-size="10.00" fill="#000000">moar_gc_plots</text>
</g>
<!-- 13&#45;&gt;0 -->
<g id="edge13" class="edge">
<title>13&#45;&gt;0</title>
<path fill="none" stroke="#c0c0c0" stroke-width="2" d="M676.3862,-71.8314C668.2768,-63.3694 658.4822,-53.1489 649.6159,-43.8971"/>
<polygon fill="#c0c0c0" stroke="#c0c0c0" stroke-width="2" points="651.89,-41.2115 642.4439,-36.4133 646.836,-46.0549 651.89,-41.2115"/>
</g>
<!-- 14 -->
<g id="node15" class="node">
<title>14</title>
<path fill="none" stroke="#ced856" stroke-width="2" d="M541.1776,-252C541.1776,-252 480.4181,-252 480.4181,-252 474.4181,-252 468.4181,-246 468.4181,-240 468.4181,-240 468.4181,-228 468.4181,-228 468.4181,-222 474.4181,-216 480.4181,-216 480.4181,-216 541.1776,-216 541.1776,-216 547.1776,-216 553.1776,-222 553.1776,-228 553.1776,-228 553.1776,-240 553.1776,-240 553.1776,-246 547.1776,-252 541.1776,-252"/>
<text text-anchor="middle" x="510.7979" y="-231" font-family="sans" font-size="10.00" fill="#000000">run_hapcut_vcf</text>
</g>
<!-- 14&#45;&gt;0 -->
<g id="edge14" class="edge">
<title>14&#45;&gt;0</title>
<path fill="none" stroke="#c0c0c0" stroke-width="2" d="M498.9074,-215.9824C475.2167,-179.013 425.8842,-96.0383 443.7979,-72 461.0034,-48.9119 539.7794,-32.0887 587.5553,-23.8"/>
<polygon fill="#c0c0c0" stroke="#c0c0c0" stroke-width="2" points="588.2574,-27.231 597.5347,-22.1141 587.0914,-20.3288 588.2574,-27.231"/>
</g>
<!-- 15 -->
<g id="node16" class="node">
<title>15</title>
<path fill="none" stroke="#56d88a" stroke-width="2" d="M552.7285,-180C552.7285,-180 506.8672,-180 506.8672,-180 500.8672,-180 494.8672,-174 494.8672,-168 494.8672,-168 494.8672,-156 494.8672,-156 494.8672,-150 500.8672,-144 506.8672,-144 506.8672,-144 552.7285,-144 552.7285,-144 558.7285,-144 564.7285,-150 564.7285,-156 564.7285,-156 564.7285,-168 564.7285,-168 564.7285,-174 558.7285,-180 552.7285,-180"/>
<text text-anchor="middle" x="529.7979" y="-159" font-family="sans" font-size="10.00" fill="#000000">eval_hapcut</text>
</g>
<!-- 14&#45;&gt;15 -->
<g id="edge35" class="edge">
<title>14&#45;&gt;15</title>
<path fill="none" stroke="#c0c0c0" stroke-width="2" d="M515.5924,-215.8314C517.6467,-208.0463 520.0939,-198.7729 522.3734,-190.1347"/>
<polygon fill="#c0c0c0" stroke="#c0c0c0" stroke-width="2" points="525.7713,-190.9753 524.9388,-180.4133 519.003,-189.1892 525.7713,-190.9753"/>
</g>
<!-- 15&#45;&gt;0 -->
<g id="edge15" class="edge">
<title>15&#45;&gt;0</title>
<path fill="none" stroke="#c0c0c0" stroke-width="2" d="M494.5942,-146.4114C479.1055,-137.5533 462.4843,-124.8278 453.7979,-108 446.4588,-93.7825 444.3398,-84.9052 453.7979,-72 469.7189,-50.2763 542.2314,-33.2502 587.5659,-24.4952"/>
<polygon fill="#c0c0c0" stroke="#c0c0c0" stroke-width="2" points="588.4457,-27.8911 597.6256,-22.6015 587.1507,-21.0119 588.4457,-27.8911"/>
</g>
<!-- 15&#45;&gt;17 -->
<g id="edge41" class="edge">
<title>15&#45;&gt;17</title>
<path fill="none" stroke="#c0c0c0" stroke-width="2" d="M529.7979,-143.8314C529.7979,-136.131 529.7979,-126.9743 529.7979,-118.4166"/>
<polygon fill="#c0c0c0" stroke="#c0c0c0" stroke-width="2" points="533.298,-118.4132 529.7979,-108.4133 526.298,-118.4133 533.298,-118.4132"/>
</g>
<!-- 16 -->
<g id="node17" class="node">
<title>16</title>
<path fill="none" stroke="#a7d856" stroke-width="2" d="M646.7966,-180C646.7966,-180 594.7991,-180 594.7991,-180 588.7991,-180 582.7991,-174 582.7991,-168 582.7991,-168 582.7991,-156 582.7991,-156 582.7991,-150 588.7991,-144 594.7991,-144 594.7991,-144 646.7966,-144 646.7966,-144 652.7966,-144 658.7966,-150 658.7966,-156 658.7966,-156 658.7966,-168 658.7966,-168 658.7966,-174 652.7966,-180 646.7966,-180"/>
<text text-anchor="middle" x="620.7979" y="-159" font-family="sans" font-size="10.00" fill="#000000">eval_longhap</text>
</g>
<!-- 16&#45;&gt;0 -->
<g id="edge16" class="edge">
<title>16&#45;&gt;0</title>
<path fill="none" stroke="#c0c0c0" stroke-width="2" d="M621.3045,-143.7623C621.9867,-119.201 623.2076,-75.2474 624.0102,-46.3541"/>
<polygon fill="#c0c0c0" stroke="#c0c0c0" stroke-width="2" points="627.5162,-46.183 624.2954,-36.0896 620.5189,-45.9885 627.5162,-46.183"/>
</g>
<!-- 16&#45;&gt;17 -->
<g id="edge40" class="edge">
<title>16&#45;&gt;17</title>
<path fill="none" stroke="#c0c0c0" stroke-width="2" d="M597.8347,-143.8314C586.6263,-134.9632 572.977,-124.1637 560.8539,-114.5718"/>
<polygon fill="#c0c0c0" stroke="#c0c0c0" stroke-width="2" points="562.7676,-111.6229 552.7536,-108.1628 558.4242,-117.1125 562.7676,-111.6229"/>
</g>
<!-- 17&#45;&gt;0 -->
<g id="edge17" class="edge">
<title>17&#45;&gt;0</title>
<path fill="none" stroke="#c0c0c0" stroke-width="2" d="M553.7704,-71.8314C565.5839,-62.8779 579.995,-51.9558 592.7413,-42.2955"/>
<polygon fill="#c0c0c0" stroke="#c0c0c0" stroke-width="2" points="594.9774,-44.9925 600.833,-36.1628 590.7492,-39.4137 594.9774,-44.9925"/>
</g>
<!-- 18 -->
<g id="node19" class="node">
<title>18</title>
<path fill="none" stroke="#56d8c1" stroke-width="2" d="M842.7673,-540C842.7673,-540 800.8284,-540 800.8284,-540 794.8284,-540 788.8284,-534 788.8284,-528 788.8284,-528 788.8284,-516 788.8284,-516 788.8284,-510 794.8284,-504 800.8284,-504 800.8284,-504 842.7673,-504 842.7673,-504 848.7673,-504 854.7673,-510 854.7673,-516 854.7673,-516 854.7673,-528 854.7673,-528 854.7673,-534 848.7673,-540 842.7673,-540"/>
<text text-anchor="middle" x="821.7979" y="-519" font-family="sans" font-size="10.00" fill="#000000">mark_dups</text>
</g>
<!-- 18&#45;&gt;1 -->
<g id="edge18" class="edge">
<title>18&#45;&gt;1</title>
<path fill="none" stroke="#c0c0c0" stroke-width="2" d="M827.948,-503.5984C836.4607,-476.4466 850.7979,-423.9035 850.7979,-378 850.7979,-378 850.7979,-378 850.7979,-234 850.7979,-193.5282 843.3299,-147.2037 837.7578,-118.2725"/>
<polygon fill="#c0c0c0" stroke="#c0c0c0" stroke-width="2" points="841.1155,-117.2111 835.7347,-108.0844 834.2496,-118.5746 841.1155,-117.2111"/>
</g>
<!-- 18&#45;&gt;3 -->
<g id="edge20" class="edge">
<title>18&#45;&gt;3</title>
<path fill="none" stroke="#c0c0c0" stroke-width="2" d="M836.6673,-503.7109C856.4061,-477.5269 888.7979,-427.081 888.7979,-378 888.7979,-378 888.7979,-378 888.7979,-234 888.7979,-192.5072 903.0394,-146.2433 913.6076,-117.6245"/>
<polygon fill="#c0c0c0" stroke="#c0c0c0" stroke-width="2" points="916.8802,-118.8654 917.1632,-108.2743 910.3373,-116.3773 916.8802,-118.8654"/>
</g>
<!-- 18&#45;&gt;4 -->
<g id="edge21" class="edge">
<title>18&#45;&gt;4</title>
<path fill="none" stroke="#c0c0c0" stroke-width="2" d="M813.1028,-503.8324C801.0676,-476.9721 780.7979,-424.7885 780.7979,-378 780.7979,-378 780.7979,-378 780.7979,-306 780.7979,-265.7369 776.0812,-219.3594 772.5621,-190.3596"/>
<polygon fill="#c0c0c0" stroke="#c0c0c0" stroke-width="2" points="775.9986,-189.6332 771.2843,-180.145 769.0527,-190.5021 775.9986,-189.6332"/>
</g>
<!-- 18&#45;&gt;8 -->
<g id="edge25" class="edge">
<title>18&#45;&gt;8</title>
<path fill="none" stroke="#c0c0c0" stroke-width="2" d="M788.8376,-519.3719C712.8681,-512.9239 527.6988,-494.8638 471.7979,-468 418.4969,-442.3857 373.7979,-437.1362 373.7979,-378 373.7979,-378 373.7979,-378 373.7979,-306 373.7979,-260.7858 344.8125,-215.3764 323.3707,-187.9705"/>
<polygon fill="#c0c0c0" stroke="#c0c0c0" stroke-width="2" points="325.9988,-185.6538 316.9989,-180.0633 320.5482,-190.046 325.9988,-185.6538"/>
</g>
<!-- 18&#45;&gt;9 -->
<g id="edge26" class="edge">
<title>18&#45;&gt;9</title>
<path fill="none" stroke="#c0c0c0" stroke-width="2" d="M789.0546,-517.3187C694.178,-502.844 425.7979,-455.0864 425.7979,-378 425.7979,-378 425.7979,-378 425.7979,-306 425.7979,-265.0964 415.8848,-218.6076 408.5432,-189.7868"/>
<polygon fill="#c0c0c0" stroke="#c0c0c0" stroke-width="2" points="411.9016,-188.7952 405.9779,-180.0111 405.1308,-190.572 411.9016,-188.7952"/>
</g>
<!-- 21 -->
<g id="node22" class="node">
<title>21</title>
<path fill="none" stroke="#59d856" stroke-width="2" d="M1002.517,-468C1002.517,-468 929.0787,-468 929.0787,-468 923.0787,-468 917.0787,-462 917.0787,-456 917.0787,-456 917.0787,-444 917.0787,-444 917.0787,-438 923.0787,-432 929.0787,-432 929.0787,-432 1002.517,-432 1002.517,-432 1008.517,-432 1014.517,-438 1014.517,-444 1014.517,-444 1014.517,-456 1014.517,-456 1014.517,-462 1008.517,-468 1002.517,-468"/>
<text text-anchor="middle" x="965.7979" y="-447" font-family="sans" font-size="10.00" fill="#000000">duplicate_analysis</text>
</g>
<!-- 18&#45;&gt;21 -->
<g id="edge48" class="edge">
<title>18&#45;&gt;21</title>
<path fill="none" stroke="#c0c0c0" stroke-width="2" d="M854.8344,-505.4817C874.2914,-495.7532 899.1809,-483.3085 920.455,-472.6714"/>
<polygon fill="#c0c0c0" stroke="#c0c0c0" stroke-width="2" points="922.2536,-475.6853 929.6327,-468.0826 919.1231,-469.4243 922.2536,-475.6853"/>
</g>
<!-- 23 -->
<g id="node24" class="node">
<title>23</title>
<path fill="none" stroke="#8fd856" stroke-width="2" d="M306.6826,-468C306.6826,-468 250.9131,-468 250.9131,-468 244.9131,-468 238.9131,-462 238.9131,-456 238.9131,-456 238.9131,-444 238.9131,-444 238.9131,-438 244.9131,-432 250.9131,-432 250.9131,-432 306.6826,-432 306.6826,-432 312.6826,-432 318.6826,-438 318.6826,-444 318.6826,-444 318.6826,-456 318.6826,-456 318.6826,-462 312.6826,-468 306.6826,-468"/>
<text text-anchor="middle" x="278.7979" y="-447" font-family="sans" font-size="10.00" fill="#000000">run_dnascope</text>
</g>
<!-- 18&#45;&gt;23 -->
<g id="edge51" class="edge">
<title>18&#45;&gt;23</title>
<path fill="none" stroke="#c0c0c0" stroke-width="2" d="M788.8648,-519.3169C712.8948,-512.8736 519.6431,-495.0293 359.7979,-468 349.6776,-466.2887 338.9162,-464.1357 328.6546,-461.9193"/>
<polygon fill="#c0c0c0" stroke="#c0c0c0" stroke-width="2" points="329.1216,-458.4381 318.6017,-459.6959 327.6099,-465.2729 329.1216,-458.4381"/>
</g>
<!-- 28 -->
<g id="node29" class="node">
<title>28</title>
<path fill="none" stroke="#56b9d8" stroke-width="2" d="M724.7334,-396C724.7334,-396 648.8623,-396 648.8623,-396 642.8623,-396 636.8623,-390 636.8623,-384 636.8623,-384 636.8623,-372 636.8623,-372 636.8623,-366 642.8623,-360 648.8623,-360 648.8623,-360 724.7334,-360 724.7334,-360 730.7334,-360 736.7334,-366 736.7334,-372 736.7334,-372 736.7334,-384 736.7334,-384 736.7334,-390 730.7334,-396 724.7334,-396"/>
<text text-anchor="middle" x="686.7979" y="-375" font-family="sans" font-size="10.00" fill="#000000">remove_duplicates</text>
</g>
<!-- 18&#45;&gt;28 -->
<g id="edge56" class="edge">
<title>18&#45;&gt;28</title>
<path fill="none" stroke="#c0c0c0" stroke-width="2" d="M802.6453,-503.8164C791.9263,-493.4865 778.421,-480.2142 766.7979,-468 746.8019,-446.9872 724.9808,-422.314 709.1869,-404.1208"/>
<polygon fill="#c0c0c0" stroke="#c0c0c0" stroke-width="2" points="711.5717,-401.5277 702.3826,-396.2541 706.2774,-406.1071 711.5717,-401.5277"/>
</g>
<!-- 19 -->
<g id="node20" class="node">
<title>19</title>
<path fill="none" stroke="#bed856" stroke-width="2" d="M1084.5492,-180C1084.5492,-180 1015.0465,-180 1015.0465,-180 1009.0465,-180 1003.0465,-174 1003.0465,-168 1003.0465,-168 1003.0465,-156 1003.0465,-156 1003.0465,-150 1009.0465,-144 1015.0465,-144 1015.0465,-144 1084.5492,-144 1084.5492,-144 1090.5492,-144 1096.5492,-150 1096.5492,-156 1096.5492,-156 1096.5492,-168 1096.5492,-168 1096.5492,-174 1090.5492,-180 1084.5492,-180"/>
<text text-anchor="middle" x="1049.7979" y="-164" font-family="sans" font-size="10.00" fill="#000000">calculate_metrics</text>
<text text-anchor="middle" x="1049.7979" y="-154" font-family="sans" font-size="10.00" fill="#000000">id: data</text>
</g>
<!-- 19&#45;&gt;2 -->
<g id="edge19" class="edge">
<title>19&#45;&gt;2</title>
<path fill="none" stroke="#c0c0c0" stroke-width="2" d="M1049.7979,-143.8314C1049.7979,-136.131 1049.7979,-126.9743 1049.7979,-118.4166"/>
<polygon fill="#c0c0c0" stroke="#c0c0c0" stroke-width="2" points="1053.298,-118.4132 1049.7979,-108.4133 1046.298,-118.4133 1053.298,-118.4132"/>
</g>
<!-- 19&#45;&gt;17 -->
<g id="edge37" class="edge">
<title>19&#45;&gt;17</title>
<path fill="none" stroke="#c0c0c0" stroke-width="2" d="M1003.1659,-156.173C927.616,-146.6482 773.8002,-126.906 643.7979,-108 631.7506,-106.248 619.0005,-104.3137 606.5596,-102.3824"/>
<polygon fill="#c0c0c0" stroke="#c0c0c0" stroke-width="2" points="607.0883,-98.9226 596.668,-100.8376 606.0082,-105.8388 607.0883,-98.9226"/>
</g>
<!-- 20 -->
<g id="node21" class="node">
<title>20</title>
<path fill="none" stroke="#d8ac56" stroke-width="2" d="M1214.9796,-180C1214.9796,-180 1126.6161,-180 1126.6161,-180 1120.6161,-180 1114.6161,-174 1114.6161,-168 1114.6161,-168 1114.6161,-156 1114.6161,-156 1114.6161,-150 1120.6161,-144 1126.6161,-144 1126.6161,-144 1214.9796,-144 1214.9796,-144 1220.9796,-144 1226.9796,-150 1226.9796,-156 1226.9796,-156 1226.9796,-168 1226.9796,-168 1226.9796,-174 1220.9796,-180 1214.9796,-180"/>
<text text-anchor="middle" x="1170.7979" y="-159" font-family="sans" font-size="10.00" fill="#000000">overlap_reads_plot_2</text>
</g>
<!-- 20&#45;&gt;5 -->
<g id="edge22" class="edge">
<title>20&#45;&gt;5</title>
<path fill="none" stroke="#c0c0c0" stroke-width="2" d="M1168.2744,-143.8314C1167.2049,-136.131 1165.9332,-126.9743 1164.7446,-118.4166"/>
<polygon fill="#c0c0c0" stroke="#c0c0c0" stroke-width="2" points="1168.1977,-117.8367 1163.3552,-108.4133 1161.2643,-118.7997 1168.1977,-117.8367"/>
</g>
<!-- 21&#45;&gt;6 -->
<g id="edge23" class="edge">
<title>21&#45;&gt;6</title>
<path fill="none" stroke="#c0c0c0" stroke-width="2" d="M967.0596,-431.8314C967.5943,-424.131 968.2302,-414.9743 968.8245,-406.4166"/>
<polygon fill="#c0c0c0" stroke="#c0c0c0" stroke-width="2" points="972.3179,-406.6317 969.5192,-396.4133 965.3347,-406.1467 972.3179,-406.6317"/>
</g>
<!-- 22 -->
<g id="node23" class="node">
<title>22</title>
<path fill="none" stroke="#5682d8" stroke-width="2" d="M1362.5736,-252C1362.5736,-252 1293.0221,-252 1293.0221,-252 1287.0221,-252 1281.0221,-246 1281.0221,-240 1281.0221,-240 1281.0221,-228 1281.0221,-228 1281.0221,-222 1287.0221,-216 1293.0221,-216 1293.0221,-216 1362.5736,-216 1362.5736,-216 1368.5736,-216 1374.5736,-222 1374.5736,-228 1374.5736,-228 1374.5736,-240 1374.5736,-240 1374.5736,-246 1368.5736,-252 1362.5736,-252"/>
<text text-anchor="middle" x="1327.7979" y="-231" font-family="sans" font-size="10.00" fill="#000000">mate_pair_plot_2</text>
</g>
<!-- 22&#45;&gt;7 -->
<g id="edge24" class="edge">
<title>22&#45;&gt;7</title>
<path fill="none" stroke="#c0c0c0" stroke-width="2" d="M1324.125,-215.7623C1319.1568,-191.0928 1310.2488,-146.8598 1304.4313,-117.9731"/>
<polygon fill="#c0c0c0" stroke="#c0c0c0" stroke-width="2" points="1307.8463,-117.2018 1302.4409,-108.0896 1300.9841,-118.5838 1307.8463,-117.2018"/>
</g>
<!-- 23&#45;&gt;10 -->
<g id="edge27" class="edge">
<title>23&#45;&gt;10</title>
<path fill="none" stroke="#c0c0c0" stroke-width="2" d="M269.4612,-431.8314C265.3736,-423.8771 260.4875,-414.369 255.9669,-405.5723"/>
<polygon fill="#c0c0c0" stroke="#c0c0c0" stroke-width="2" points="258.944,-403.7078 251.2602,-396.4133 252.718,-406.9074 258.944,-403.7078"/>
</g>
<!-- 24&#45;&gt;11 -->
<g id="edge28" class="edge">
<title>24&#45;&gt;11</title>
<path fill="none" stroke="#c0c0c0" stroke-width="2" d="M248.728,-287.8811C254.7527,-269.3182 261.2939,-239.8769 252.7979,-216 249.21,-205.9169 242.8444,-196.3517 236.0503,-188.1515"/>
<polygon fill="#c0c0c0" stroke="#c0c0c0" stroke-width="2" points="238.4574,-185.591 229.2004,-180.4375 233.2232,-190.2389 238.4574,-185.591"/>
</g>
<!-- 25 -->
<g id="node26" class="node">
<title>25</title>
<path fill="none" stroke="#56d87b" stroke-width="2" d="M231.8899,-252C231.8899,-252 189.7058,-252 189.7058,-252 183.7058,-252 177.7058,-246 177.7058,-240 177.7058,-240 177.7058,-228 177.7058,-228 177.7058,-222 183.7058,-216 189.7058,-216 189.7058,-216 231.8899,-216 231.8899,-216 237.8899,-216 243.8899,-222 243.8899,-228 243.8899,-228 243.8899,-240 243.8899,-240 243.8899,-246 237.8899,-252 231.8899,-252"/>
<text text-anchor="middle" x="210.7979" y="-231" font-family="sans" font-size="10.00" fill="#000000">index_snps</text>
</g>
<!-- 24&#45;&gt;25 -->
<g id="edge53" class="edge">
<title>24&#45;&gt;25</title>
<path fill="none" stroke="#c0c0c0" stroke-width="2" d="M233.9752,-287.8314C230.5869,-279.9617 226.5438,-270.5712 222.7902,-261.8533"/>
<polygon fill="#c0c0c0" stroke="#c0c0c0" stroke-width="2" points="225.8951,-260.214 218.7258,-252.4133 219.4657,-262.9822 225.8951,-260.214"/>
</g>
<!-- 25&#45;&gt;11 -->
<g id="edge29" class="edge">
<title>25&#45;&gt;11</title>
<path fill="none" stroke="#c0c0c0" stroke-width="2" d="M210.2932,-215.8314C210.0793,-208.131 209.8249,-198.9743 209.5872,-190.4166"/>
<polygon fill="#c0c0c0" stroke="#c0c0c0" stroke-width="2" points="213.0857,-190.3122 209.3093,-180.4133 206.0884,-190.5066 213.0857,-190.3122"/>
</g>
<!-- 26&#45;&gt;12 -->
<g id="edge30" class="edge">
<title>26&#45;&gt;12</title>
<path fill="none" stroke="#c0c0c0" stroke-width="2" d="M85.3045,-287.7623C85.9867,-263.201 87.2076,-219.2474 88.0102,-190.3541"/>
<polygon fill="#c0c0c0" stroke="#c0c0c0" stroke-width="2" points="91.5162,-190.183 88.2954,-180.0896 84.5189,-189.9885 91.5162,-190.183"/>
</g>
<!-- 27 -->
<g id="node28" class="node">
<title>27</title>
<path fill="none" stroke="#68d856" stroke-width="2" d="M59.3947,-252C59.3947,-252 12.201,-252 12.201,-252 6.201,-252 .201,-246 .201,-240 .201,-240 .201,-228 .201,-228 .201,-222 6.201,-216 12.201,-216 12.201,-216 59.3947,-216 59.3947,-216 65.3947,-216 71.3947,-222 71.3947,-228 71.3947,-228 71.3947,-240 71.3947,-240 71.3947,-246 65.3947,-252 59.3947,-252"/>
<text text-anchor="middle" x="35.7979" y="-231" font-family="sans" font-size="10.00" fill="#000000">index_indels</text>
</g>
<!-- 26&#45;&gt;27 -->
<g id="edge55" class="edge">
<title>26&#45;&gt;27</title>
<path fill="none" stroke="#c0c0c0" stroke-width="2" d="M72.4331,-287.8314C66.847,-279.6232 60.1349,-269.7606 53.9907,-260.7323"/>
<polygon fill="#c0c0c0" stroke="#c0c0c0" stroke-width="2" points="56.8489,-258.7112 48.3291,-252.4133 51.0619,-262.6496 56.8489,-258.7112"/>
</g>
<!-- 27&#45;&gt;12 -->
<g id="edge31" class="edge">
<title>27&#45;&gt;12</title>
<path fill="none" stroke="#c0c0c0" stroke-width="2" d="M49.172,-215.8314C55.2141,-207.6232 62.4741,-197.7606 69.1199,-188.7323"/>
<polygon fill="#c0c0c0" stroke="#c0c0c0" stroke-width="2" points="72.1341,-190.5415 75.2436,-180.4133 66.4967,-186.3918 72.1341,-190.5415"/>
</g>
<!-- 28&#45;&gt;13 -->
<g id="edge32" class="edge">
<title>28&#45;&gt;13</title>
<path fill="none" stroke="#c0c0c0" stroke-width="2" d="M687.2357,-359.9843C688.4192,-311.2939 691.6882,-176.7961 693.1159,-118.0573"/>
<polygon fill="#c0c0c0" stroke="#c0c0c0" stroke-width="2" points="696.616,-118.091 693.3601,-108.0089 689.6181,-117.9208 696.616,-118.091"/>
</g>
<!-- 30 -->
<g id="node31" class="node">
<title>30</title>
<path fill="none" stroke="#56c9d8" stroke-width="2" d="M646.3516,-324C646.3516,-324 579.2441,-324 579.2441,-324 573.2441,-324 567.2441,-318 567.2441,-312 567.2441,-312 567.2441,-300 567.2441,-300 567.2441,-294 573.2441,-288 579.2441,-288 579.2441,-288 646.3516,-288 646.3516,-288 652.3516,-288 658.3516,-294 658.3516,-300 658.3516,-300 658.3516,-312 658.3516,-312 658.3516,-318 652.3516,-324 646.3516,-324"/>
<text text-anchor="middle" x="612.7979" y="-303" font-family="sans" font-size="10.00" fill="#000000">run_hapcut_bam</text>
</g>
<!-- 28&#45;&gt;30 -->
<g id="edge58" class="edge">
<title>28&#45;&gt;30</title>
<path fill="none" stroke="#c0c0c0" stroke-width="2" d="M668.1245,-359.8314C659.2729,-351.219 648.5492,-340.7851 638.9084,-331.4048"/>
<polygon fill="#c0c0c0" stroke="#c0c0c0" stroke-width="2" points="641.0732,-328.6279 631.4652,-324.1628 636.1917,-333.645 641.0732,-328.6279"/>
</g>
<!-- 29&#45;&gt;14 -->
<g id="edge33" class="edge">
<title>29&#45;&gt;14</title>
<path fill="none" stroke="#c0c0c0" stroke-width="2" d="M506.3119,-287.8314C506.9536,-280.131 507.7167,-270.9743 508.4298,-262.4166"/>
<polygon fill="#c0c0c0" stroke="#c0c0c0" stroke-width="2" points="511.9208,-262.6694 509.2634,-252.4133 504.945,-262.088 511.9208,-262.6694"/>
</g>
<!-- 31 -->
<g id="node32" class="node">
<title>31</title>
<path fill="none" stroke="#56d873" stroke-width="2" d="M636.4044,-252C636.4044,-252 589.1913,-252 589.1913,-252 583.1913,-252 577.1913,-246 577.1913,-240 577.1913,-240 577.1913,-228 577.1913,-228 577.1913,-222 583.1913,-216 589.1913,-216 589.1913,-216 636.4044,-216 636.4044,-216 642.4044,-216 648.4044,-222 648.4044,-228 648.4044,-228 648.4044,-240 648.4044,-240 648.4044,-246 642.4044,-252 636.4044,-252"/>
<text text-anchor="middle" x="612.7979" y="-231" font-family="sans" font-size="10.00" fill="#000000">run_longhap</text>
</g>
<!-- 29&#45;&gt;31 -->
<g id="edge60" class="edge">
<title>29&#45;&gt;31</title>
<path fill="none" stroke="#c0c0c0" stroke-width="2" d="M532.0508,-287.8314C545.7368,-278.7074 562.4893,-267.539 577.1806,-257.7449"/>
<polygon fill="#c0c0c0" stroke="#c0c0c0" stroke-width="2" points="579.1746,-260.6221 585.5536,-252.1628 575.2916,-254.7977 579.1746,-260.6221"/>
</g>
<!-- 30&#45;&gt;14 -->
<g id="edge34" class="edge">
<title>30&#45;&gt;14</title>
<path fill="none" stroke="#c0c0c0" stroke-width="2" d="M587.0589,-287.8314C574.2541,-278.7927 558.607,-267.7476 544.8259,-258.0198"/>
<polygon fill="#c0c0c0" stroke="#c0c0c0" stroke-width="2" points="546.7166,-255.0703 536.5285,-252.1628 542.6798,-260.7891 546.7166,-255.0703"/>
</g>
<!-- 30&#45;&gt;31 -->
<g id="edge59" class="edge">
<title>30&#45;&gt;31</title>
<path fill="none" stroke="#c0c0c0" stroke-width="2" d="M612.7979,-287.8314C612.7979,-280.131 612.7979,-270.9743 612.7979,-262.4166"/>
<polygon fill="#c0c0c0" stroke="#c0c0c0" stroke-width="2" points="616.298,-262.4132 612.7979,-252.4133 609.298,-262.4133 616.298,-262.4132"/>
</g>
<!-- 31&#45;&gt;16 -->
<g id="edge36" class="edge">
<title>31&#45;&gt;16</title>
<path fill="none" stroke="#c0c0c0" stroke-width="2" d="M614.8166,-215.8314C615.6722,-208.131 616.6896,-198.9743 617.6404,-190.4166"/>
<polygon fill="#c0c0c0" stroke="#c0c0c0" stroke-width="2" points="621.1261,-190.7386 618.7519,-180.4133 614.1689,-189.9656 621.1261,-190.7386"/>
</g>
<!-- 32 -->
<g id="node33" class="node">
<title>32</title>
<path fill="none" stroke="#56a2d8" stroke-width="2" d="M1040.8272,-684C1040.8272,-684 998.7685,-684 998.7685,-684 992.7685,-684 986.7685,-678 986.7685,-672 986.7685,-672 986.7685,-660 986.7685,-660 986.7685,-654 992.7685,-648 998.7685,-648 998.7685,-648 1040.8272,-648 1040.8272,-648 1046.8272,-648 1052.8272,-654 1052.8272,-660 1052.8272,-660 1052.8272,-672 1052.8272,-672 1052.8272,-678 1046.8272,-684 1040.8272,-684"/>
<text text-anchor="middle" x="1019.7979" y="-663" font-family="sans" font-size="10.00" fill="#000000">map_reads</text>
</g>
<!-- 32&#45;&gt;18 -->
<g id="edge43" class="edge">
<title>32&#45;&gt;18</title>
<path fill="none" stroke="#c0c0c0" stroke-width="2" d="M986.5868,-652.7286C964.3885,-643.077 935.0963,-628.7926 911.7979,-612 885.9591,-593.3765 860.6851,-567.1927 843.5314,-547.8663"/>
<polygon fill="#c0c0c0" stroke="#c0c0c0" stroke-width="2" points="846.1398,-545.5322 836.9234,-540.3063 840.8693,-550.139 846.1398,-545.5322"/>
</g>
<!-- 32&#45;&gt;19 -->
<g id="edge45" class="edge">
<title>32&#45;&gt;19</title>
<path fill="none" stroke="#c0c0c0" stroke-width="2" d="M1024.5635,-647.9623C1031.3003,-620.8344 1042.7979,-567.8236 1042.7979,-522 1042.7979,-522 1042.7979,-522 1042.7979,-306 1042.7979,-265.8286 1045.5492,-219.4278 1047.6021,-190.3979"/>
<polygon fill="#c0c0c0" stroke="#c0c0c0" stroke-width="2" points="1051.1111,-190.3996 1048.3474,-180.1716 1044.1297,-189.8907 1051.1111,-190.3996"/>
</g>
<!-- 33 -->
<g id="node34" class="node">
<title>33</title>
<path fill="none" stroke="#d6d856" stroke-width="2" d="M990.9406,-612C990.9406,-612 932.6551,-612 932.6551,-612 926.6551,-612 920.6551,-606 920.6551,-600 920.6551,-600 920.6551,-588 920.6551,-588 920.6551,-582 926.6551,-576 932.6551,-576 932.6551,-576 990.9406,-576 990.9406,-576 996.9406,-576 1002.9406,-582 1002.9406,-588 1002.9406,-588 1002.9406,-600 1002.9406,-600 1002.9406,-606 996.9406,-612 990.9406,-612"/>
<text text-anchor="middle" x="961.7979" y="-596" font-family="sans" font-size="10.00" fill="#000000">locus_collector</text>
<text text-anchor="middle" x="961.7979" y="-586" font-family="sans" font-size="10.00" fill="#000000">id: data</text>
</g>
<!-- 32&#45;&gt;33 -->
<g id="edge61" class="edge">
<title>32&#45;&gt;33</title>
<path fill="none" stroke="#c0c0c0" stroke-width="2" d="M1005.162,-647.8314C998.4817,-639.5386 990.441,-629.557 983.1075,-620.4533"/>
<polygon fill="#c0c0c0" stroke="#c0c0c0" stroke-width="2" points="985.6297,-618.0052 976.6308,-612.4133 980.1784,-622.3965 985.6297,-618.0052"/>
</g>
<!-- 42 -->
<g id="node43" class="node">
<title>42</title>
<path fill="none" stroke="#d8c356" stroke-width="2" d="M1366.1871,-468C1366.1871,-468 1265.4086,-468 1265.4086,-468 1259.4086,-468 1253.4086,-462 1253.4086,-456 1253.4086,-456 1253.4086,-444 1253.4086,-444 1253.4086,-438 1259.4086,-432 1265.4086,-432 1265.4086,-432 1366.1871,-432 1366.1871,-432 1372.1871,-432 1378.1871,-438 1378.1871,-444 1378.1871,-444 1378.1871,-456 1378.1871,-456 1378.1871,-462 1372.1871,-468 1366.1871,-468"/>
<text text-anchor="middle" x="1315.7979" y="-452" font-family="sans" font-size="10.00" fill="#000000">remove_sam_duplicates</text>
<text text-anchor="middle" x="1315.7979" y="-442" font-family="sans" font-size="10.00" fill="#000000">id: data</text>
</g>
<!-- 32&#45;&gt;42 -->
<g id="edge71" class="edge">
<title>32&#45;&gt;42</title>
<path fill="none" stroke="#c0c0c0" stroke-width="2" d="M1044.5255,-647.9555C1097.6313,-609.2026 1222.6171,-517.9967 1282.5744,-474.2442"/>
<polygon fill="#c0c0c0" stroke="#c0c0c0" stroke-width="2" points="1284.9176,-476.8671 1290.9324,-468.1451 1280.7913,-471.2125 1284.9176,-476.8671"/>
</g>
<!-- 33&#45;&gt;18 -->
<g id="edge44" class="edge">
<title>33&#45;&gt;18</title>
<path fill="none" stroke="#c0c0c0" stroke-width="2" d="M926.4699,-575.8314C907.3632,-566.005 883.6457,-553.8075 863.621,-543.509"/>
<polygon fill="#c0c0c0" stroke="#c0c0c0" stroke-width="2" points="865.2037,-540.3873 854.7101,-538.9263 862.0022,-546.6123 865.2037,-540.3873"/>
</g>
<!-- 34 -->
<g id="node35" class="node">
<title>34</title>
<path fill="none" stroke="#56d8b1" stroke-width="2" d="M1163.2529,-252C1163.2529,-252 1082.3428,-252 1082.3428,-252 1076.3428,-252 1070.3428,-246 1070.3428,-240 1070.3428,-240 1070.3428,-228 1070.3428,-228 1070.3428,-222 1076.3428,-216 1082.3428,-216 1082.3428,-216 1163.2529,-216 1163.2529,-216 1169.2529,-216 1175.2529,-222 1175.2529,-228 1175.2529,-228 1175.2529,-240 1175.2529,-240 1175.2529,-246 1169.2529,-252 1163.2529,-252"/>
<text text-anchor="middle" x="1122.7979" y="-231" font-family="sans" font-size="10.00" fill="#000000">reads_on_ref_count</text>
</g>
<!-- 34&#45;&gt;20 -->
<g id="edge46" class="edge">
<title>34&#45;&gt;20</title>
<path fill="none" stroke="#c0c0c0" stroke-width="2" d="M1134.9103,-215.8314C1140.3259,-207.7079 1146.822,-197.9637 1152.79,-189.0118"/>
<polygon fill="#c0c0c0" stroke="#c0c0c0" stroke-width="2" points="1155.8875,-190.6753 1158.5223,-180.4133 1150.0631,-186.7923 1155.8875,-190.6753"/>
</g>
<!-- 35 -->
<g id="node36" class="node">
<title>35</title>
<path fill="none" stroke="#80d856" stroke-width="2" d="M1250.7188,-252C1250.7188,-252 1204.8769,-252 1204.8769,-252 1198.8769,-252 1192.8769,-246 1192.8769,-240 1192.8769,-240 1192.8769,-228 1192.8769,-228 1192.8769,-222 1198.8769,-216 1204.8769,-216 1204.8769,-216 1250.7188,-216 1250.7188,-216 1256.7188,-216 1262.7188,-222 1262.7188,-228 1262.7188,-228 1262.7188,-240 1262.7188,-240 1262.7188,-246 1256.7188,-252 1250.7188,-252"/>
<text text-anchor="middle" x="1227.7979" y="-231" font-family="sans" font-size="10.00" fill="#000000">overlap_hist</text>
</g>
<!-- 35&#45;&gt;20 -->
<g id="edge47" class="edge">
<title>35&#45;&gt;20</title>
<path fill="none" stroke="#c0c0c0" stroke-width="2" d="M1213.4143,-215.8314C1206.8493,-207.5386 1198.9472,-197.557 1191.7401,-188.4533"/>
<polygon fill="#c0c0c0" stroke="#c0c0c0" stroke-width="2" points="1194.3263,-186.0813 1185.375,-180.4133 1188.8379,-190.4262 1194.3263,-186.0813"/>
</g>
<!-- 36 -->
<g id="node37" class="node">
<title>36</title>
<path fill="none" stroke="#56d892" stroke-width="2" d="M1349.2914,-324C1349.2914,-324 1282.3043,-324 1282.3043,-324 1276.3043,-324 1270.3043,-318 1270.3043,-312 1270.3043,-312 1270.3043,-300 1270.3043,-300 1270.3043,-294 1276.3043,-288 1282.3043,-288 1282.3043,-288 1349.2914,-288 1349.2914,-288 1355.2914,-288 1361.2914,-294 1361.2914,-300 1361.2914,-300 1361.2914,-312 1361.2914,-312 1361.2914,-318 1355.2914,-324 1349.2914,-324"/>
<text text-anchor="middle" x="1315.7979" y="-303" font-family="sans" font-size="10.00" fill="#000000">mate_pair_count</text>
</g>
<!-- 36&#45;&gt;22 -->
<g id="edge49" class="edge">
<title>36&#45;&gt;22</title>
<path fill="none" stroke="#c0c0c0" stroke-width="2" d="M1318.826,-287.8314C1320.1094,-280.131 1321.6355,-270.9743 1323.0617,-262.4166"/>
<polygon fill="#c0c0c0" stroke="#c0c0c0" stroke-width="2" points="1326.5373,-262.8526 1324.729,-252.4133 1319.6325,-261.7018 1326.5373,-262.8526"/>
</g>
<!-- 37 -->
<g id="node38" class="node">
<title>37</title>
<path fill="none" stroke="#70d856" stroke-width="2" d="M1448.3897,-324C1448.3897,-324 1391.206,-324 1391.206,-324 1385.206,-324 1379.206,-318 1379.206,-312 1379.206,-312 1379.206,-300 1379.206,-300 1379.206,-294 1385.206,-288 1391.206,-288 1391.206,-288 1448.3897,-288 1448.3897,-288 1454.3897,-288 1460.3897,-294 1460.3897,-300 1460.3897,-300 1460.3897,-312 1460.3897,-312 1460.3897,-318 1454.3897,-324 1448.3897,-324"/>
<text text-anchor="middle" x="1419.7979" y="-303" font-family="sans" font-size="10.00" fill="#000000">mate_pair_hist</text>
</g>
<!-- 37&#45;&gt;22 -->
<g id="edge50" class="edge">
<title>37&#45;&gt;22</title>
<path fill="none" stroke="#c0c0c0" stroke-width="2" d="M1396.5824,-287.8314C1385.2508,-278.9632 1371.4515,-268.1637 1359.1952,-258.5718"/>
<polygon fill="#c0c0c0" stroke="#c0c0c0" stroke-width="2" points="1361.0381,-255.5697 1351.0059,-252.1628 1356.7239,-261.0822 1361.0381,-255.5697"/>
</g>
<!-- 38 -->
<g id="node39" class="node">
<title>38</title>
<path fill="none" stroke="#d85e56" stroke-width="2" d="M1221.6154,-396C1221.6154,-396 1161.9803,-396 1161.9803,-396 1155.9803,-396 1149.9803,-390 1149.9803,-384 1149.9803,-384 1149.9803,-372 1149.9803,-372 1149.9803,-366 1155.9803,-360 1161.9803,-360 1161.9803,-360 1221.6154,-360 1221.6154,-360 1227.6154,-360 1233.6154,-366 1233.6154,-372 1233.6154,-372 1233.6154,-384 1233.6154,-384 1233.6154,-390 1227.6154,-396 1221.6154,-396"/>
<text text-anchor="middle" x="1191.7979" y="-375" font-family="sans" font-size="10.00" fill="#000000">lfr_length_stats</text>
</g>
<!-- 38&#45;&gt;34 -->
<g id="edge62" class="edge">
<title>38&#45;&gt;34</title>
<path fill="none" stroke="#c0c0c0" stroke-width="2" d="M1170.1688,-359.7589C1160.0805,-350.1213 1148.7852,-337.5035 1141.7979,-324 1131.8593,-304.793 1127.1187,-280.7217 1124.8579,-262.3073"/>
<polygon fill="#c0c0c0" stroke="#c0c0c0" stroke-width="2" points="1128.3215,-261.7766 1123.7928,-252.1984 1121.36,-262.5101 1128.3215,-261.7766"/>
</g>
<!-- 39 -->
<g id="node40" class="node">
<title>39</title>
<path fill="none" stroke="#d8d356" stroke-width="2" d="M1240.3565,-324C1240.3565,-324 1163.2392,-324 1163.2392,-324 1157.2392,-324 1151.2392,-318 1151.2392,-312 1151.2392,-312 1151.2392,-300 1151.2392,-300 1151.2392,-294 1157.2392,-288 1163.2392,-288 1163.2392,-288 1240.3565,-288 1240.3565,-288 1246.3565,-288 1252.3565,-294 1252.3565,-300 1252.3565,-300 1252.3565,-312 1252.3565,-312 1252.3565,-318 1246.3565,-324 1240.3565,-324"/>
<text text-anchor="middle" x="1201.7979" y="-303" font-family="sans" font-size="10.00" fill="#000000">overlap_reads_plot</text>
</g>
<!-- 38&#45;&gt;39 -->
<g id="edge68" class="edge">
<title>38&#45;&gt;39</title>
<path fill="none" stroke="#c0c0c0" stroke-width="2" d="M1194.3213,-359.8314C1195.3908,-352.131 1196.6625,-342.9743 1197.8511,-334.4166"/>
<polygon fill="#c0c0c0" stroke="#c0c0c0" stroke-width="2" points="1201.3314,-334.7997 1199.2405,-324.4133 1194.398,-333.8367 1201.3314,-334.7997"/>
</g>
<!-- 39&#45;&gt;35 -->
<g id="edge63" class="edge">
<title>39&#45;&gt;35</title>
<path fill="none" stroke="#c0c0c0" stroke-width="2" d="M1208.3587,-287.8314C1211.2006,-279.9617 1214.5916,-270.5712 1217.7397,-261.8533"/>
<polygon fill="#c0c0c0" stroke="#c0c0c0" stroke-width="2" points="1221.044,-263.0076 1221.1486,-252.4133 1214.4602,-260.63 1221.044,-263.0076"/>
</g>
<!-- 40 -->
<g id="node41" class="node">
<title>40</title>
<path fill="none" stroke="#d86e56" stroke-width="2" d="M1355.5736,-396C1355.5736,-396 1276.0221,-396 1276.0221,-396 1270.0221,-396 1264.0221,-390 1264.0221,-384 1264.0221,-384 1264.0221,-372 1264.0221,-372 1264.0221,-366 1270.0221,-360 1276.0221,-360 1276.0221,-360 1355.5736,-360 1355.5736,-360 1361.5736,-360 1367.5736,-366 1367.5736,-372 1367.5736,-372 1367.5736,-384 1367.5736,-384 1367.5736,-390 1361.5736,-396 1355.5736,-396"/>
<text text-anchor="middle" x="1315.7979" y="-375" font-family="sans" font-size="10.00" fill="#000000">mate_pair_distance</text>
</g>
<!-- 40&#45;&gt;36 -->
<g id="edge64" class="edge">
<title>40&#45;&gt;36</title>
<path fill="none" stroke="#c0c0c0" stroke-width="2" d="M1315.7979,-359.8314C1315.7979,-352.131 1315.7979,-342.9743 1315.7979,-334.4166"/>
<polygon fill="#c0c0c0" stroke="#c0c0c0" stroke-width="2" points="1319.298,-334.4132 1315.7979,-324.4133 1312.298,-334.4133 1319.298,-334.4132"/>
</g>
<!-- 40&#45;&gt;37 -->
<g id="edge65" class="edge">
<title>40&#45;&gt;37</title>
<path fill="none" stroke="#c0c0c0" stroke-width="2" d="M1342.0414,-359.8314C1355.0973,-350.7927 1371.0513,-339.7476 1385.1026,-330.0198"/>
<polygon fill="#c0c0c0" stroke="#c0c0c0" stroke-width="2" points="1387.333,-332.7326 1393.5627,-324.1628 1383.3485,-326.9773 1387.333,-332.7326"/>
</g>
<!-- 41 -->
<g id="node42" class="node">
<title>41</title>
<path fill="none" stroke="#566bd8" stroke-width="2" d="M1223.465,-468C1223.465,-468 1140.1307,-468 1140.1307,-468 1134.1307,-468 1128.1307,-462 1128.1307,-456 1128.1307,-456 1128.1307,-444 1128.1307,-444 1128.1307,-438 1134.1307,-432 1140.1307,-432 1140.1307,-432 1223.465,-432 1223.465,-432 1229.465,-432 1235.465,-438 1235.465,-444 1235.465,-444 1235.465,-456 1235.465,-456 1235.465,-462 1229.465,-468 1223.465,-468"/>
<text text-anchor="middle" x="1181.7979" y="-447" font-family="sans" font-size="10.00" fill="#000000">generate_chrom_ids</text>
</g>
<!-- 41&#45;&gt;38 -->
<g id="edge66" class="edge">
<title>41&#45;&gt;38</title>
<path fill="none" stroke="#c0c0c0" stroke-width="2" d="M1184.3213,-431.8314C1185.3908,-424.131 1186.6625,-414.9743 1187.8511,-406.4166"/>
<polygon fill="#c0c0c0" stroke="#c0c0c0" stroke-width="2" points="1191.3314,-406.7997 1189.2405,-396.4133 1184.398,-405.8367 1191.3314,-406.7997"/>
</g>
<!-- 41&#45;&gt;40 -->
<g id="edge69" class="edge">
<title>41&#45;&gt;40</title>
<path fill="none" stroke="#c0c0c0" stroke-width="2" d="M1215.6117,-431.8314C1233.0685,-422.4516 1254.5465,-410.9112 1273.1331,-400.9244"/>
<polygon fill="#c0c0c0" stroke="#c0c0c0" stroke-width="2" points="1274.8425,-403.9792 1281.9948,-396.1628 1271.5292,-397.8129 1274.8425,-403.9792"/>
</g>
<!-- 42&#45;&gt;38 -->
<g id="edge67" class="edge">
<title>42&#45;&gt;38</title>
<path fill="none" stroke="#c0c0c0" stroke-width="2" d="M1284.5074,-431.8314C1268.5002,-422.5368 1248.8392,-411.1208 1231.7484,-401.1971"/>
<polygon fill="#c0c0c0" stroke="#c0c0c0" stroke-width="2" points="1233.4837,-398.1575 1223.0783,-396.1628 1229.9687,-404.211 1233.4837,-398.1575"/>
</g>
<!-- 42&#45;&gt;40 -->
<g id="edge70" class="edge">
<title>42&#45;&gt;40</title>
<path fill="none" stroke="#c0c0c0" stroke-width="2" d="M1315.7979,-431.8314C1315.7979,-424.131 1315.7979,-414.9743 1315.7979,-406.4166"/>
<polygon fill="#c0c0c0" stroke="#c0c0c0" stroke-width="2" points="1319.298,-406.4132 1315.7979,-396.4133 1312.298,-406.4133 1319.298,-406.4132"/>
</g>
</g>
</svg>
